<?xml version="1.0" encoding="UTF-8"?>
<svg id="SVGDoc" width="100" height="100" xmlns="http://www.w3.org/2000/svg" version="1.1" xmlns:xlink="http://www.w3.org/1999/xlink" xmlns:avocode="https://avocode.com/" viewBox="0 0 100 100"><defs></defs><desc>Generated with Avocode.</desc><g><g><title>Icon</title><path d="M99.30798,90.79226c0.81379,0.81487 0.81379,2.13529 0,2.94955l-5.63999,5.64418c-0.39116,0.39124 -0.92102,0.61192 -1.47354,0.61192c-0.55252,0 -1.08238,-0.22068 -1.47308,-0.61192l-11.01849,-11.02734l-4.99214,4.99742c-0.20794,0.20784 -0.45376,0.36312 -0.71915,0.46704c-1.3385,0.7299 -2.70813,1.39744 -4.10385,2.00202h0.89905c1.1507,0 2.08363,0.93469 2.08363,2.08577c0,1.1517 -0.93292,2.08516 -2.08363,2.08516l-20.93914,-0.00061c-0.00858,0 -0.01659,0.00061 -0.02518,0.00061c-0.00389,0 -0.00744,0 -0.01156,0c-0.00813,0 -0.01614,-0.00061 -0.02472,-0.00061h-20.66895c-1.1507,0 -2.08363,-0.93285 -2.08363,-2.08516c0,-1.15048 0.93292,-2.08516 2.08363,-2.08516h0.77213c-1.68755,-0.73785 -3.33755,-1.57044 -4.9395,-2.49596c-11.52077,-6.6565 -19.77493,-17.45215 -23.24158,-30.40082c-3.46619,-12.94744 -1.71238,-26.42917 4.93961,-37.95961c6.65154,-11.52983 17.43942,-19.79101 30.37708,-23.25894c12.93732,-3.46977 26.40701,-1.7141 37.92835,4.94179c11.40472,6.59048 19.62513,17.26387 23.14751,30.05421c3.51837,12.77628 1.93279,26.14247 -4.46457,37.63501c-0.15289,0.27509 -0.36015,0.49944 -0.59933,0.67244l-4.7477,4.75168zM70.78976,90.79654l-6.36246,-23.76449c-0.19295,-0.71828 0.0127,-1.48669 0.53925,-2.01547c0.5262,-0.52511 1.2925,-0.73112 2.01267,-0.53795l23.7886,6.37836c10.98999,-21.52895 3.18031,-48.41354 -17.89799,-60.59319c-10.5574,-6.0996 -22.90478,-7.70673 -34.76635,-4.5261c-11.86226,3.18062 -21.7519,10.75103 -27.84679,21.31621c-6.09535,10.56641 -7.70164,22.92334 -4.52328,34.79488c3.17825,11.87155 10.7428,21.76919 21.29986,27.86879c13.33191,7.70428 29.96441,8.08084 43.75648,1.07895zM94.88838,92.26673l-11.01883,-11.02734c-0.3907,-0.39062 -0.6102,-0.92124 -0.6102,-1.47447c0,-0.55201 0.2195,-1.08262 0.6102,-1.47447l3.91376,-3.91663l-18.39695,-4.93262l4.92954,18.41129l3.91376,-3.91786c0.3907,-0.39001 0.92056,-0.61008 1.47308,-0.61008c0.55252,0 1.08273,0.22007 1.47343,0.61008l11.01814,11.02856zM20.93403,59.57107c-0.50468,-0.49516 -0.75668,-1.29719 -0.75668,-2.4061v-14.55518c0,-2.1793 1.03821,-3.26804 3.11634,-3.26804h3.47271c1.12804,0 2.20642,0.05991 3.23547,0.17789c1.70174,0.17728 2.95784,0.67794 3.76945,1.50075c0.81127,0.82098 1.21696,1.9953 1.21696,3.52051c0,1.28557 -0.24742,2.31624 -0.74192,3.08893c-0.49473,0.77147 -1.27647,1.33692 -2.34501,1.6927c1.24683,0.29709 2.18182,0.83688 2.80495,1.61935c0.62347,0.78064 0.93487,1.8761 0.93487,3.2821c0,2.812 -0.99964,4.61474 -2.99767,5.40638c-1.14807,0.45603 -3.16624,0.68344 -6.05541,0.68344h-3.29475c-1.06853,0 -1.8552,-0.24819 -2.35931,-0.74274zM24.27296,43.70709v4.15993h2.73067c1.26652,0 2.10754,-0.08986 2.52285,-0.26836c0.89046,-0.37595 1.33564,-1.14864 1.33564,-2.31685c0,-0.77269 -0.14374,-1.33203 -0.4303,-1.67803c-0.28725,-0.34722 -0.70759,-0.60825 -1.26171,-0.78736c-0.43499,-0.11859 -1.08822,-0.1785 -1.959,-0.1785h-2.04758c-0.59395,0 -0.89069,0.35761 -0.89069,1.06917zM24.27296,51.13445v4.63369c0,0.39674 0.08434,0.68527 0.25234,0.86255c0.168,0.17728 0.46017,0.26714 0.87559,0.26714h2.19624c1.12827,0 1.93966,-0.10025 2.43382,-0.29648c0.95009,-0.37656 1.42513,-1.29841 1.42513,-2.76432c0,-1.18777 -0.50491,-1.98919 -1.51417,-2.40487c-0.51418,-0.19806 -1.43452,-0.29771 -2.76043,-0.29771zM68.71574,59.45248v-7.84243l-6.52977,-10.6954c-0.25749,-0.43525 -0.38601,-0.7623 -0.38601,-0.98053c0,-0.25614 0.12852,-0.44564 0.38601,-0.56423c0.21767,-0.07886 1.32568,-0.11859 3.32405,-0.11859c0.47447,0 0.87044,0.27814 1.1871,0.83138c1.89949,3.15006 3.3046,5.60506 4.21486,7.36867c0.75176,-1.44635 2.16671,-3.8824 4.24427,-7.30877c0.33634,-0.59419 0.74226,-0.89128 1.21708,-0.89128c1.70174,0 2.70115,0.05013 2.99789,0.14977c0.23781,0.09842 0.35614,0.26653 0.35648,0.50433c0,0.21885 -0.11833,0.53489 -0.35614,0.95058l-6.53011,10.63427v7.96164c0,0.27753 -0.07908,0.49516 -0.23781,0.65349c-0.15827,0.15955 -0.35614,0.23719 -0.59326,0.23719h-2.49344c-0.53478,0 -0.80166,-0.29648 -0.80166,-0.89006zM57.59472,40.14257v11.79391c0,1.58389 -0.05894,2.81139 -0.17761,3.68373c-0.1189,0.87111 -0.35614,1.61446 -0.71262,2.22882c-1.16741,1.92011 -3.64071,2.87986 -7.41989,2.87986c-3.83938,0 -6.23337,-1.02883 -7.18334,-3.08893c-0.43522,-0.95058 -0.65289,-2.83218 -0.65289,-5.64418v-11.85321c0,-0.55445 0.26688,-0.83138 0.8012,-0.83138h2.61211c0.45525,0 0.68275,0.27692 0.68275,0.83138v12.74449c0,1.56433 0.20737,2.6335 0.62302,3.20813c0.55401,0.79164 1.67244,1.18777 3.35438,1.18777c1.82064,0 2.98794,-0.37656 3.50235,-1.12847c0.43499,-0.61375 0.65266,-1.68292 0.65266,-3.20752v-12.8044c0,-0.55445 0.26756,-0.83138 0.80166,-0.83138h2.40383c0.47516,0 0.71262,0.27753 0.71239,0.83138zM41.7189,88.7988c-0.24925,0.93041 -1.09142,1.54538 -2.01118,1.54538c-0.17841,0 -0.35992,-0.02262 -0.54062,-0.07091c-14.33372,-3.84511 -25.62401,-15.14386 -29.46476,-29.48814c-0.29789,-1.11258 0.36175,-2.25572 1.47331,-2.55464c1.11111,-0.29832 2.25357,0.3625 2.55157,1.47447c3.45669,12.91016 13.6179,23.08044 26.51848,26.53921c1.11122,0.29893 1.77097,1.44207 1.4732,2.55464zM59.6582,13.73724c-1.11168,-0.29832 -1.77143,-1.44207 -1.47366,-2.55403c0.29789,-1.11258 1.44047,-1.77217 2.5518,-1.47447c14.33372,3.84389 25.62424,15.14203 29.46499,29.48753c0.29789,1.11258 -0.36186,2.25633 -1.47308,2.55526c-0.18059,0.04707 -0.36243,0.07152 -0.5405,0.07152c-0.91988,0 -1.76193,-0.61436 -2.0113,-1.54599c-3.45669,-12.91138 -13.61824,-23.08044 -26.51825,-26.53982zM50.71819,89.65707c-0.0388,1.12664 -0.96325,2.01486 -2.08099,2.01486c-0.02403,0 -0.04807,-0.00061 -0.07244,-0.00122c-0.58434,-0.02078 -1.1665,-0.05074 -1.73035,-0.09414c-1.14727,-0.08619 -2.00787,-1.08629 -1.92181,-2.23493c0.08595,-1.14803 1.08559,-2.01058 2.23354,-1.92378c0.50766,0.03851 1.0326,0.06602 1.56075,0.08436c1.15013,0.03973 2.05055,1.00499 2.0113,2.15485zM49.1856,10.32249c0.0396,-1.15048 0.99964,-2.05215 2.15446,-2.01119c0.58731,0.01895 1.1689,0.05135 1.72909,0.09292c1.14738,0.08619 2.00775,1.0869 1.92192,2.23615c-0.0824,1.09485 -0.99575,1.92928 -2.07539,1.92928c-0.05253,0 -0.10506,-0.00245 -0.15839,-0.00672c-0.50446,-0.03729 -1.02985,-0.06602 -1.56166,-0.08375c-1.15002,-0.04096 -2.05021,-1.00621 -2.01004,-2.15668z" fill="#ffffff" fill-opacity="1"></path></g></g></svg>