<?xml version="1.0" encoding="UTF-8"?>
<svg id="SVGDoc" width="120" height="101" xmlns="http://www.w3.org/2000/svg" version="1.1" xmlns:xlink="http://www.w3.org/1999/xlink" xmlns:avocode="https://avocode.com/" viewBox="0 0 120 101"><defs></defs><desc>Generated with Avocode.</desc><g><g><title>Icon</title><path d="M119.99966,10.27847v54.90621c0,5.53965 -4.5068,10.0468 -10.0462,10.0468h-33.9846l3.41251,10.23875c3.22803,0.8381 5.61916,3.7742 5.61916,7.26108v2.49963h7.5c1.38039,0 2.50008,1.11991 2.50008,2.50085c0,1.38094 -1.11969,2.50024 -2.50008,2.50024h-65.00072c-1.38039,0 -2.50008,-1.1193 -2.50008,-2.50024c0,-1.38094 1.11969,-2.50085 2.50008,-2.50085h7.50034v-2.49963c0,-3.48689 2.3901,-6.4236 5.61836,-7.26108l3.41297,-10.23875h-33.9846c-5.53986,0 -10.04688,-4.50715 -10.04688,-10.0468v-54.90621c0,-5.53904 4.50703,-10.04558 10.04688,-10.04558h99.90658c5.53974,0 10.04654,4.50654 10.0462,10.04558zM77.50008,90.23108h-34.99992c-1.37867,0 -2.49985,1.12113 -2.49985,2.50024v2.49963h40.00031v-2.49963c0,-1.3791 -1.12175,-2.50024 -2.50053,-2.50024zM74.03126,85.23061l-3.33332,-9.99912h-21.39599l-3.33332,9.99912zM115.00008,65.18469v-49.9522h-94.56871c-1.3805,0 -2.50008,-1.11991 -2.50008,-2.50085c0,-1.38094 1.11958,-2.50024 2.50008,-2.50024h94.56608c-0.02598,-2.76065 -2.27737,-4.99987 -5.04398,-4.99987h-99.90635c-2.78275,0 -5.04696,2.26489 -5.04696,5.04694v47.45379h94.96868c1.38096,0 2.50008,1.11808 2.50008,2.49963c0,1.38033 -1.11935,2.50024 -2.50008,2.50024h-94.96868v2.45256c0,2.78205 2.26421,5.04694 5.04696,5.04694h99.90635c2.78275,0 5.04662,-2.26489 5.04662,-5.04694zM42.94167,28.67754c-0.23678,-1.35954 0.67245,-2.65368 2.03156,-2.89086c0.14465,-0.02445 0.28805,-0.03729 0.43007,-0.03729v-0.00183h12.91008c1.38073,0 2.50031,1.1193 2.50031,2.50085c0,1.37972 -1.11958,2.49902 -2.50031,2.49902h-9.92695l1.37959,7.73851l14.77146,0.98298l1.30428,-10.29071l0.75726,-5.97184c0.15427,-1.233 1.20747,-2.18419 2.47993,-2.17869l5.52864,0.0269c1.37512,0.00489 2.48554,1.12358 2.47971,2.49902c-0.00492,1.37483 -1.1245,2.48557 -2.49893,2.48068l-3.32623,-0.01589l-0.47951,3.78459l-1.60011,12.62406c-0.1664,1.31553 -1.33049,2.26061 -2.63626,2.17136l-0.00046,0.0055l-19.06311,-1.26846c-1.17142,-0.07886 -2.09953,-0.95241 -2.29214,-2.06071h-0.0024zM53.91769,49.43746c0,1.37544 -1.12312,2.49902 -2.49985,2.49902c-1.37672,0 -2.49985,-1.12358 -2.49985,-2.49902c0,-1.37727 1.12312,-2.50146 2.49985,-2.50146c1.37672,0 2.49962,1.12419 2.49985,2.50146zM66.66183,49.43746c0,1.37544 -1.12267,2.49902 -2.49939,2.49902c-1.37672,0 -2.49985,-1.12358 -2.49985,-2.49902c0,-1.37727 1.12312,-2.50146 2.49985,-2.50146c1.37672,0 2.49939,1.12419 2.49939,2.50146zM15.26527,12.73164c0,1.38155 -1.11958,2.50146 -2.50008,2.50146h-1.12289c-1.3805,0 -2.50008,-1.12052 -2.50008,-2.50146c0,-1.38094 1.11958,-2.49963 2.50008,-2.49963h1.12289c1.38073,0 2.50008,1.11869 2.50008,2.49963zM104.68781,60.23189c0,-1.38155 1.11958,-2.49963 2.50008,-2.49963h1.05721c1.3805,0 2.50008,1.11808 2.50008,2.49963c0,1.38033 -1.11958,2.50024 -2.50008,2.50024h-1.05721c-1.3805,0 -2.50008,-1.1193 -2.50008,-2.50024z" fill="#ffffff" fill-opacity="1"></path></g></g></svg>